<svg width="31" height="30" viewBox="0 0 31 30" fill="none" xmlns="http://www.w3.org/2000/svg">
<path d="M15.2336 0C23.5183 0 30.2336 6.71531 30.2336 15C30.2336 23.2847 23.5183 30 15.2336 30C6.94896 30 0.233643 23.2847 0.233643 15C0.233643 6.71531 6.94896 0 15.2336 0ZM15.2336 5.625L13.5471 6.61406L8.95239 9.32344L7.26489 10.3125V19.6875L8.95146 20.6766L13.5893 23.3859L15.2758 24.375L16.9624 23.3859L21.5158 20.6766L23.2024 19.6875V10.3125L21.5158 9.32344L16.9202 6.61406L15.2336 5.625ZM15.2336 9.58125L19.8293 12.2906V17.7094L15.2336 20.4188L10.638 17.7094V12.2906L15.2336 9.58125Z" fill="#0083FD"/>
</svg>
