<svg width="31" height="30" viewBox="0 0 31 30" fill="none" xmlns="http://www.w3.org/2000/svg">
<path d="M15.3667 30C23.651 30 30.3667 23.2843 30.3667 15C30.3667 6.71573 23.651 0 15.3667 0C7.08243 0 0.366699 6.71573 0.366699 15C0.366699 23.2843 7.08243 30 15.3667 30Z" fill="#F3BA2F"/>
<path d="M11.7254 13.5038L15.3667 9.8625L19.0098 13.5056L21.1286 11.3869L15.3667 5.625L9.6067 11.385L11.7254 13.5038ZM5.9917 15L8.11045 12.8812L10.2292 15L8.11045 17.1188L5.9917 15ZM11.7254 16.4963L15.3667 20.1375L19.0098 16.4944L21.1286 18.6122L15.3667 24.375L9.6067 18.615L9.60389 18.6122L11.7254 16.4963ZM20.5042 15L22.6229 12.8812L24.7417 15L22.6229 17.1188L20.5042 15ZM17.5154 14.9981H17.5173V15L15.3667 17.1506L13.2189 15.0037L13.2151 15L13.2189 14.9972L13.5948 14.6203L13.7776 14.4375L15.3667 12.8494L17.5154 14.9981Z" fill="white"/>
</svg>
