<svg width="25" height="25" viewBox="0 0 25 25" fill="none" xmlns="http://www.w3.org/2000/svg">
<path d="M12.5 2.60059C6.98 2.60059 2.5 7.08059 2.5 12.6006C2.5 18.1206 6.98 22.6006 12.5 22.6006C18.02 22.6006 22.5 18.1206 22.5 12.6006C22.5 7.08059 18.02 2.60059 12.5 2.60059ZM19.96 9.72059L17.18 10.8706C16.9295 10.1967 16.5362 9.58502 16.027 9.07753C15.5177 8.57004 14.9047 8.17877 14.23 7.93059L15.38 5.15059C17.48 5.95059 19.15 7.62059 19.96 9.72059ZM12.5 15.6006C10.84 15.6006 9.5 14.2606 9.5 12.6006C9.5 10.9406 10.84 9.60059 12.5 9.60059C14.16 9.60059 15.5 10.9406 15.5 12.6006C15.5 14.2606 14.16 15.6006 12.5 15.6006ZM9.63 5.14059L10.8 7.92059C10.1173 8.16937 9.49706 8.56397 8.98241 9.07689C8.46776 9.58981 8.07108 10.2087 7.82 10.8906L5.04 9.73059C5.44099 8.68674 6.05677 7.73876 6.84747 6.94806C7.63817 6.15736 8.58615 5.54157 9.63 5.14059ZM5.04 15.4706L7.82 14.3206C8.06934 15.0007 8.46436 15.618 8.97741 16.1293C9.49045 16.6406 10.1091 17.0335 10.79 17.2806L9.62 20.0606C8.57838 19.6578 7.63269 19.0412 6.84385 18.2507C6.05502 17.4601 5.44054 16.5131 5.04 15.4706ZM15.38 20.0606L14.23 17.2806C14.9079 17.0294 15.5229 16.6336 16.0324 16.1207C16.5418 15.6078 16.9334 14.9901 17.18 14.3106L19.96 15.4806C19.5577 16.5209 18.9425 17.4657 18.1538 18.2544C17.3651 19.0431 16.4203 19.6583 15.38 20.0606Z" fill="#34FCB4"/>
</svg>
