<svg width="140" height="139" viewBox="0 0 140 139" fill="none" xmlns="http://www.w3.org/2000/svg">
<path fill-rule="evenodd" clip-rule="evenodd" d="M69.9365 0.0839844C31.5877 0.0841287 0.5 31.172 0.5 69.5207C0.5 107.87 31.5877 138.957 69.9365 138.957V107.397C69.9364 107.397 69.9363 107.397 69.9362 107.397C49.0187 107.397 32.0616 90.4396 32.0616 69.522C32.0616 48.6045 49.0187 31.6474 69.9362 31.6474C69.9363 31.6474 69.9364 31.6474 69.9365 31.6474V0.0839844ZM107.811 127.728C126.813 115.339 139.374 93.8967 139.374 69.5207C139.374 45.1448 126.813 23.7026 107.811 11.3132V127.728Z" fill="white"/>
<path d="M69.9367 107.397C74.9104 107.397 79.8355 106.417 84.4307 104.514C89.0258 102.61 93.2011 99.8204 96.7181 96.3034C100.235 92.7865 103.025 88.6112 104.928 84.016C106.832 79.4209 107.811 74.4958 107.811 69.5221C107.811 64.5483 106.832 59.6232 104.928 55.0281C103.025 50.4329 100.235 46.2577 96.7181 42.7407C93.2011 39.2237 89.0258 36.4339 84.4307 34.5305C79.8355 32.6271 74.9104 31.6475 69.9367 31.6475L69.9367 69.5221L69.9367 107.397Z" fill="white"/>
</svg>
