<svg width="25" height="25" viewBox="0 0 25 25" fill="none" xmlns="http://www.w3.org/2000/svg">
<path d="M19.03 9.43359L13.5 3.90359C13.3595 3.7629 13.1688 3.68377 12.97 3.68359H8.5C7.77065 3.68359 7.07118 3.97332 6.55546 4.48905C6.03973 5.00477 5.75 5.70425 5.75 6.43359V18.4336C5.75 19.1629 6.03973 19.8624 6.55546 20.3781C7.07118 20.8939 7.77065 21.1836 8.5 21.1836H16.5C17.2293 21.1836 17.9288 20.8939 18.4445 20.3781C18.9603 19.8624 19.25 19.1629 19.25 18.4336V9.93359C19.2421 9.7452 19.1636 9.56668 19.03 9.43359ZM13.75 6.24359L16.69 9.18359H13.75V6.24359ZM16.5 19.6836H8.5C8.16848 19.6836 7.85054 19.5519 7.61612 19.3175C7.3817 19.0831 7.25 18.7651 7.25 18.4336V6.43359C7.25 6.10207 7.3817 5.78413 7.61612 5.54971C7.85054 5.31529 8.16848 5.18359 8.5 5.18359H12.25V9.93359C12.2526 10.1317 12.3324 10.321 12.4725 10.4611C12.6126 10.6012 12.8019 10.681 13 10.6836H17.75V18.4336C17.75 18.7651 17.6183 19.0831 17.3839 19.3175C17.1495 19.5519 16.8315 19.6836 16.5 19.6836Z" fill="#34FCB4"/>
<path d="M13.9895 15.2838C13.3746 14.8979 12.9119 14.3115 12.6795 13.6238C12.8948 12.9804 12.9598 12.2962 12.8695 11.6238C12.8407 11.4544 12.7581 11.2987 12.6339 11.1799C12.5097 11.0612 12.3506 10.9855 12.1801 10.9642C12.0096 10.9429 11.8367 10.977 11.6871 11.0616C11.5376 11.1462 11.4192 11.2767 11.3495 11.4338C11.2357 12.2422 11.3215 13.0662 11.5995 13.8338C11.2197 14.721 10.7959 15.5888 10.3295 16.4338C9.61952 16.8338 8.64952 17.4338 8.49952 18.1238C8.37952 18.6838 9.42952 20.1238 11.2195 17.0038C12.0155 16.7083 12.8307 16.4677 13.6595 16.2838C14.2722 16.6341 14.9556 16.8425 15.6595 16.8938C15.8211 16.898 15.9804 16.8543 16.1173 16.7682C16.2541 16.6822 16.3625 16.5576 16.4288 16.4101C16.495 16.2626 16.5162 16.0988 16.4896 15.9394C16.4631 15.7799 16.39 15.6318 16.2795 15.5138C15.8595 15.0838 14.6095 15.2038 13.9895 15.2838ZM9.20952 18.2838C9.48976 17.8042 9.85985 17.3832 10.2995 17.0438C9.61952 18.1238 9.20952 18.3138 9.20952 18.2938V18.2838ZM12.1295 11.4738C12.3895 11.4738 12.3695 12.6238 12.1895 12.9338C12.0539 12.4622 12.0334 11.9649 12.1295 11.4838V11.4738ZM11.2595 16.3538C11.5983 15.7356 11.8924 15.094 12.1395 14.4338C12.4044 14.9267 12.7729 15.3566 13.2195 15.6938C12.5486 15.8618 11.8929 16.0859 11.2595 16.3638V16.3538ZM15.9595 16.1738C15.9595 16.1738 15.7795 16.3938 14.6295 15.8938C15.8795 15.8138 16.0895 16.1038 15.9595 16.1838V16.1738Z" fill="#34FCB4"/>
</svg>
