<svg width="31" height="30" viewBox="0 0 31 30" fill="none" xmlns="http://www.w3.org/2000/svg">
<path d="M15.1001 0C23.3848 0 30.1001 6.71531 30.1001 15C30.1001 23.2847 23.3848 30 15.1001 30C6.81541 30 0.100098 23.2847 0.100098 15C0.100098 6.71531 6.81541 0 15.1001 0ZM15.3935 6.40594C15.2922 6.3544 15.1801 6.32753 15.0663 6.32753C14.9526 6.32753 14.8405 6.3544 14.7392 6.40594C14.5488 6.50344 14.3979 6.76594 14.0998 7.29094L7.09385 19.6594C6.79947 20.1769 6.65322 20.4366 6.6626 20.6484C6.66911 20.7617 6.70221 20.8718 6.75922 20.9698C6.81623 21.0679 6.89554 21.1511 6.99072 21.2128C7.16885 21.3281 7.46416 21.3281 8.05947 21.3281H10.8982C11.5657 21.3281 11.8995 21.3281 12.1976 21.2456C12.5248 21.1481 12.8229 20.9756 13.0704 20.7384C13.2982 20.5209 13.4623 20.2322 13.7867 19.665L13.796 19.6481L17.4767 13.1325C17.8029 12.5606 17.9642 12.2738 18.0363 11.9709C18.116 11.6426 18.116 11.2999 18.0363 10.9716C17.9651 10.6716 17.802 10.3856 17.4804 9.82219L17.4729 9.80906L16.0329 7.29094C15.7348 6.76594 15.5829 6.50344 15.3935 6.40594ZM19.766 15.2953C19.5785 15.3928 19.4285 15.6487 19.1304 16.1625L17.1007 19.6519L17.0942 19.6641C16.797 20.1778 16.6479 20.4338 16.6592 20.6447C16.6654 20.7583 16.6982 20.8688 16.7548 20.9675C16.8115 21.0662 16.8904 21.1502 16.9854 21.2128C17.126 21.3047 17.3482 21.3234 17.7373 21.3272L22.1285 21.3281C22.7285 21.3281 23.0304 21.3281 23.2104 21.21C23.306 21.1478 23.3854 21.0637 23.4421 20.9648C23.4988 20.8658 23.5312 20.7549 23.5367 20.6409C23.547 20.4356 23.4035 20.1872 23.1213 19.6987L23.0913 19.6481L21.0551 16.1588L21.0317 16.1194C20.7457 15.6347 20.6004 15.39 20.4157 15.2953C20.3151 15.244 20.2038 15.2172 20.0909 15.2172C19.9779 15.2172 19.8666 15.244 19.766 15.2953Z" fill="#E84142"/>
</svg>
