<svg width="25" height="25" viewBox="0 0 25 25" fill="none" xmlns="http://www.w3.org/2000/svg">
<path d="M9.49999 13.1006L6.99999 15.6006L9.49999 18.1006L12 15.6006L9.49999 13.1006ZM15.5 3.10059C13.8595 3.10061 12.2798 3.72091 11.0776 4.83706C9.87535 5.95321 9.13964 7.48265 9.01799 9.11859C7.77689 9.21085 6.58836 9.65747 5.59364 10.4054C4.59891 11.1533 3.83981 12.1711 3.40653 13.3377C2.97324 14.5044 2.884 15.7709 3.1494 16.9868C3.41479 18.2027 4.02367 19.3169 4.90369 20.1969C5.7837 21.0769 6.89785 21.6858 8.11375 21.9512C9.32965 22.2166 10.5962 22.1273 11.7629 21.6941C12.9295 21.2608 13.9473 20.5017 14.6952 19.5069C15.4431 18.5122 15.8897 17.3237 15.982 16.0826C17.6592 15.9575 19.2227 15.1872 20.3439 13.9334C21.465 12.6797 22.0565 11.0402 21.9941 9.35942C21.9317 7.67867 21.2202 6.08754 20.0092 4.92039C18.7982 3.75324 17.1819 3.10095 15.5 3.10059ZM15.823 14.0896C15.5429 12.9217 14.9451 11.854 14.0958 11.0048C13.2466 10.1555 12.1789 9.55772 11.011 9.27759C11.073 8.41737 11.3809 7.59311 11.8981 6.90291C12.4152 6.21271 13.1198 5.68566 13.928 5.38451C14.7361 5.08335 15.6138 5.02077 16.4565 5.20422C17.2992 5.38767 18.0715 5.80942 18.6813 6.41926C19.2912 7.0291 19.7129 7.80134 19.8964 8.64405C20.0798 9.48676 20.0172 10.3644 19.7161 11.1726C19.4149 11.9808 18.8879 12.6853 18.1977 13.2025C17.5075 13.7196 16.6832 14.0276 15.823 14.0896ZM14 15.6006C14 16.7941 13.5259 17.9387 12.682 18.7826C11.8381 19.6265 10.6935 20.1006 9.49999 20.1006C8.30652 20.1006 7.16193 19.6265 6.31801 18.7826C5.4741 17.9387 4.99999 16.7941 4.99999 15.6006C4.99999 14.4071 5.4741 13.2625 6.31801 12.4186C7.16193 11.5747 8.30652 11.1006 9.49999 11.1006C10.6935 11.1006 11.8381 11.5747 12.682 12.4186C13.5259 13.2625 14 14.4071 14 15.6006ZM3.49999 7.60059C3.49999 6.53972 3.92142 5.5223 4.67156 4.77216C5.42171 4.02201 6.43913 3.60059 7.49999 3.60059H8.99999V5.60059H7.49999C6.96956 5.60059 6.46085 5.8113 6.08578 6.18637C5.71071 6.56144 5.49999 7.07015 5.49999 7.60059V9.10059H3.49999V7.60059ZM19.5 17.6006V16.1006H21.5V17.6006C21.5 18.6615 21.0786 19.6789 20.3284 20.429C19.5783 21.1792 18.5609 21.6006 17.5 21.6006H16V19.6006H17.5C18.0304 19.6006 18.5391 19.3899 18.9142 19.0148C19.2893 18.6397 19.5 18.131 19.5 17.6006Z" fill="#34FCB4"/>
</svg>
