<svg width="31" height="30" viewBox="0 0 31 30" fill="none" xmlns="http://www.w3.org/2000/svg">
<path d="M24.8736 9.30887C24.7169 9.45012 24.5145 9.53003 24.3036 9.53387H4.2723C3.56105 9.53387 3.2023 8.72137 3.6948 8.24637L6.9848 5.07387C7.1377 4.9262 7.34102 4.84219 7.55355 4.83887H27.6636C28.3811 4.83887 28.7323 5.65887 28.2336 6.13637L24.8736 9.30887Z" fill="url(#paint0_linear_625_19)"/>
<path d="M24.8736 24.9427C24.716 25.0816 24.5137 25.1593 24.3036 25.1614H4.2723C3.56105 25.1614 3.2023 24.3552 3.6948 23.8789L6.9848 20.6989C7.13836 20.5533 7.34197 20.4724 7.55355 20.4727H27.6636C28.3811 20.4727 28.7323 21.2852 28.2336 21.7602L24.8736 24.9427Z" fill="url(#paint1_linear_625_19)"/>
<path d="M24.8736 12.8789C24.716 12.7399 24.5137 12.6623 24.3036 12.6602H4.2723C3.56105 12.6602 3.2023 13.4664 3.6948 13.9414L6.9848 17.1227C7.14115 17.2636 7.34308 17.3435 7.55355 17.3477H27.6636C28.3811 17.3477 28.7323 16.5352 28.2336 16.0602L24.8736 12.8789Z" fill="url(#paint2_linear_625_19)"/>
<defs>
<linearGradient id="paint0_linear_625_19" x1="3.46855" y1="74.7789" x2="29.1048" y2="74.5439" gradientUnits="userSpaceOnUse">
<stop stop-color="#599DB0"/>
<stop offset="1" stop-color="#47F8C3"/>
</linearGradient>
<linearGradient id="paint1_linear_625_19" x1="3.46855" y1="11.0664" x2="28.9411" y2="10.8714" gradientUnits="userSpaceOnUse">
<stop stop-color="#C44FE2"/>
<stop offset="1" stop-color="#73B0D0"/>
</linearGradient>
<linearGradient id="paint2_linear_625_19" x1="4.9073" y1="15.0039" x2="27.4986" y2="15.0039" gradientUnits="userSpaceOnUse">
<stop stop-color="#778CBF"/>
<stop offset="1" stop-color="#5DCDC9"/>
</linearGradient>
</defs>
</svg>
