<svg width="25" height="25" viewBox="0 0 25 25" fill="none" xmlns="http://www.w3.org/2000/svg">
<path d="M9.5 15.6006L15.5 9.60059" stroke="#34FCB4" stroke-width="2" stroke-linecap="round" stroke-linejoin="round"/>
<path d="M10 10.6006C10.2761 10.6006 10.5 10.3767 10.5 10.1006C10.5 9.82444 10.2761 9.60059 10 9.60059C9.72386 9.60059 9.5 9.82444 9.5 10.1006C9.5 10.3767 9.72386 10.6006 10 10.6006Z" fill="#34FCB4" stroke="#34FCB4" stroke-width="2" stroke-linecap="round" stroke-linejoin="round"/>
<path d="M15 15.6006C15.2761 15.6006 15.5 15.3767 15.5 15.1006C15.5 14.8244 15.2761 14.6006 15 14.6006C14.7239 14.6006 14.5 14.8244 14.5 15.1006C14.5 15.3767 14.7239 15.6006 15 15.6006Z" fill="#34FCB4" stroke="#34FCB4" stroke-width="2" stroke-linecap="round" stroke-linejoin="round"/>
<path d="M3.5 12.6006C3.5 13.7825 3.73279 14.9528 4.18508 16.0447C4.63738 17.1367 5.30031 18.1288 6.13604 18.9645C6.97177 19.8003 7.96392 20.4632 9.05585 20.9155C10.1478 21.3678 11.3181 21.6006 12.5 21.6006C13.6819 21.6006 14.8522 21.3678 15.9442 20.9155C17.0361 20.4632 18.0282 19.8003 18.864 18.9645C19.6997 18.1288 20.3626 17.1367 20.8149 16.0447C21.2672 14.9528 21.5 13.7825 21.5 12.6006C21.5 11.4187 21.2672 10.2484 20.8149 9.15644C20.3626 8.0645 19.6997 7.07235 18.864 6.23662C18.0282 5.4009 17.0361 4.73796 15.9442 4.28567C14.8522 3.83338 13.6819 3.60059 12.5 3.60059C11.3181 3.60059 10.1478 3.83338 9.05585 4.28567C7.96392 4.73796 6.97177 5.4009 6.13604 6.23662C5.30031 7.07235 4.63738 8.0645 4.18508 9.15644C3.73279 10.2484 3.5 11.4187 3.5 12.6006Z" stroke="#34FCB4" stroke-width="2" stroke-linecap="round" stroke-linejoin="round"/>
</svg>
