<svg width="25" height="25" viewBox="0 0 25 25" fill="none" xmlns="http://www.w3.org/2000/svg">
<path d="M4.5 8.27344V6.27344C4.5 5.743 4.71071 5.2343 5.08579 4.85922C5.46086 4.48415 5.96957 4.27344 6.5 4.27344H8.5M4.5 16.2734V18.2734C4.5 18.8039 4.71071 19.3126 5.08579 19.6877C5.46086 20.0627 5.96957 20.2734 6.5 20.2734H8.5M16.5 4.27344H18.5C19.0304 4.27344 19.5391 4.48415 19.9142 4.85922C20.2893 5.2343 20.5 5.743 20.5 6.27344V8.27344M16.5 20.2734H18.5C19.0304 20.2734 19.5391 20.0627 19.9142 19.6877C20.2893 19.3126 20.5 18.8039 20.5 18.2734V16.2734M10.5 11.2734V9.27344C10.5 8.743 10.7107 8.2343 11.0858 7.85922C11.4609 7.48415 11.9696 7.27344 12.5 7.27344C13.0304 7.27344 13.5391 7.48415 13.9142 7.85922C14.2893 8.2343 14.5 8.743 14.5 9.27344V11.2734M8.5 12.2734C8.5 12.0082 8.60536 11.7539 8.79289 11.5663C8.98043 11.3788 9.23478 11.2734 9.5 11.2734H15.5C15.7652 11.2734 16.0196 11.3788 16.2071 11.5663C16.3946 11.7539 16.5 12.0082 16.5 12.2734V15.2734C16.5 15.5387 16.3946 15.793 16.2071 15.9805C16.0196 16.1681 15.7652 16.2734 15.5 16.2734H9.5C9.23478 16.2734 8.98043 16.1681 8.79289 15.9805C8.60536 15.793 8.5 15.5387 8.5 15.2734V12.2734Z" stroke="#34FCB4" stroke-width="2" stroke-linecap="round" stroke-linejoin="round"/>
</svg>
