<svg width="24" height="24" viewBox="0 0 24 24" fill="none" xmlns="http://www.w3.org/2000/svg">
<path opacity="0.2" d="M21.3438 5.46484V18.4023C21.3438 18.7836 21.1923 19.1492 20.9227 19.4188C20.6531 19.6884 20.2875 19.8398 19.9062 19.8398H4.09375C3.7125 19.8398 3.34687 19.6884 3.07728 19.4188C2.8077 19.1492 2.65625 18.7836 2.65625 18.4023V5.46484C2.65625 5.0836 2.8077 4.71796 3.07728 4.44838C3.34687 4.17879 3.7125 4.02734 4.09375 4.02734H19.9062C20.2875 4.02734 20.6531 4.17879 20.9227 4.44838C21.1923 4.71796 21.3438 5.0836 21.3438 5.46484Z" fill="#34FCB4"/>
<path d="M18.9769 8.12952L10.3519 16.7545C10.2852 16.8213 10.2059 16.8744 10.1187 16.9105C10.0314 16.9467 9.93787 16.9653 9.84342 16.9653C9.74896 16.9653 9.65543 16.9467 9.56818 16.9105C9.48092 16.8744 9.40165 16.8213 9.3349 16.7545L5.74115 13.1608C5.60628 13.0259 5.53052 12.843 5.53052 12.6523C5.53052 12.4615 5.60628 12.2786 5.74115 12.1437C5.87602 12.0089 6.05894 11.9331 6.24967 11.9331C6.4404 11.9331 6.62332 12.0089 6.75818 12.1437L9.84342 15.2299L17.9599 7.11249C18.0948 6.97762 18.2777 6.90186 18.4684 6.90186C18.6591 6.90186 18.8421 6.97762 18.9769 7.11249C19.1118 7.24736 19.1876 7.43027 19.1876 7.62101C19.1876 7.81174 19.1118 7.99465 18.9769 8.12952Z" fill="#34FCB4"/>
</svg>
