<svg width="21" height="20" viewBox="0 0 21 20" fill="none" xmlns="http://www.w3.org/2000/svg">
<mask id="mask0_2085_2568" style="mask-type:luminance" maskUnits="userSpaceOnUse" x="0" y="0" width="21" height="20">
<path d="M0.5 1.90735e-06H20.5V20H0.5V1.90735e-06Z" fill="white"/>
</mask>
<g mask="url(#mask0_2085_2568)">
<path d="M8.27344 18.9644C4.2618 17.9977 1.28125 14.3855 1.28125 10.0771V10.0771C1.28125 5.02854 5.37395 0.78088 10.4225 0.78088C12.9651 0.78088 15.2652 1.88721 16.9221 3.6085" stroke="white" stroke-width="1.5625" stroke-miterlimit="10" stroke-linecap="round" stroke-linejoin="round"/>
<path d="M19.7187 2.57813V4.80469C19.7187 5.66762 19.0192 6.36719 18.1562 6.36719H15.9297" stroke="white" stroke-width="1.5625" stroke-miterlimit="10" stroke-linecap="round" stroke-linejoin="round"/>
<path d="M17.9609 13.2422C17.9609 13.7816 18.3982 14.2188 18.9375 14.2188C19.4768 14.2188 19.9141 13.7816 19.9141 13.2422C19.9141 12.7029 19.4768 12.2656 18.9375 12.2656C18.3982 12.2656 17.9609 12.7029 17.9609 13.2422Z" fill="white"/>
<path d="M16.2812 16.0938C16.2812 16.6331 16.7185 17.0703 17.2578 17.0703C17.7971 17.0703 18.2344 16.6331 18.2344 16.0938C18.2344 15.5544 17.7971 15.1172 17.2578 15.1172C16.7185 15.1172 16.2812 15.5544 16.2812 16.0938Z" fill="white"/>
<path d="M13.7031 18.0859C13.7031 18.6253 14.1404 19.0625 14.6797 19.0625C15.219 19.0625 15.6562 18.6253 15.6562 18.0859C15.6562 17.5466 15.219 17.1094 14.6797 17.1094C14.1404 17.1094 13.7031 17.5466 13.7031 18.0859Z" fill="white"/>
<path d="M10.4609 19.0234C10.4609 19.5628 10.8982 20 11.4375 20C11.9768 20 12.4141 19.5628 12.4141 19.0234C12.4141 18.4841 11.9768 18.0469 11.4375 18.0469C10.8982 18.0469 10.4609 18.4841 10.4609 19.0234Z" fill="white"/>
<path d="M10.2315 9.69238L7.64844 7.14836" stroke="white" stroke-width="1.5625" stroke-miterlimit="10" stroke-linecap="round" stroke-linejoin="round"/>
<path d="M11.6719 10C11.6719 10.6472 11.1472 11.1719 10.5 11.1719C9.85281 11.1719 9.32812 10.6472 9.32812 10C9.32812 9.35281 9.85281 8.82812 10.5 8.82812C11.1472 8.82812 11.6719 9.35281 11.6719 10Z" fill="white"/>
</g>
</svg>
