<svg width="99" height="165" viewBox="0 0 99 165" fill="none" xmlns="http://www.w3.org/2000/svg">
<path d="M49.4033 164.28L49.4033 147.114L87.9205 124.925" stroke="#777777" stroke-miterlimit="10" stroke-linecap="round" stroke-linejoin="round"/>
<path d="M49.4033 164.28L11.0256 142.09L11.0256 124.925L49.4032 147.114" stroke="#777777" stroke-miterlimit="10" stroke-linecap="round" stroke-linejoin="round"/>
<path d="M11.0256 136.229L49.4033 158.558" stroke="#777777" stroke-miterlimit="10" stroke-linecap="round" stroke-linejoin="round"/>
<path d="M87.9205 142.09L49.4033 164.28" stroke="#777777" stroke-miterlimit="10" stroke-linecap="round" stroke-linejoin="round"/>
<path d="M87.9205 136.229L49.4033 158.558" stroke="#777777" stroke-miterlimit="10" stroke-linecap="round" stroke-linejoin="round"/>
<path d="M44.9375 105.387L11.0256 124.925" stroke="#777777" stroke-miterlimit="10" stroke-linecap="round" stroke-linejoin="round"/>
<path d="M53.8694 105.387L87.9208 124.925" stroke="#777777" stroke-miterlimit="10" stroke-linecap="round" stroke-linejoin="round"/>
<path d="M49.4033 136.368L49.4033 123.529" stroke="#777777" stroke-miterlimit="10" stroke-linecap="round" stroke-linejoin="round"/>
<path d="M30.145 125.343L30.145 121.017" stroke="#777777" stroke-miterlimit="10" stroke-linecap="round" stroke-linejoin="round"/>
<path d="M68.6616 125.343L68.6616 121.017" stroke="#777777" stroke-miterlimit="10" stroke-linecap="round" stroke-linejoin="round"/>
<path d="M30.145 121.017L49.4036 132.042" stroke="#777777" stroke-miterlimit="10" stroke-linecap="round" stroke-linejoin="round"/>
<path d="M30.145 125.344L49.4036 136.368" stroke="#777777" stroke-miterlimit="10" stroke-linecap="round" stroke-linejoin="round"/>
<path d="M68.6619 121.017L49.4033 132.042" stroke="#777777" stroke-miterlimit="10" stroke-linecap="round" stroke-linejoin="round"/>
<path d="M68.6619 125.344L49.4033 136.368L49.4033 109.016" stroke="#777777" stroke-miterlimit="10" stroke-linecap="round" stroke-linejoin="round"/>
<path d="M44.9373 87.524L44.9373 106.224" stroke="#777777" stroke-miterlimit="10" stroke-linecap="round" stroke-linejoin="round"/>
<path d="M53.8694 87.3844L53.8694 106.224" stroke="#777777" stroke-miterlimit="10" stroke-linecap="round" stroke-linejoin="round"/>
<path d="M53.8688 106.085L53.8688 106.225L53.8688 106.504L53.8688 106.643L53.8688 106.783L53.7292 106.783L53.7292 106.922L53.7292 107.062L53.5897 107.341L53.4501 107.481L53.3106 107.62L53.0315 107.76L52.8919 107.899L52.7523 107.899L52.6128 108.178L52.4733 108.318L52.1941 108.318L52.0546 108.457L51.915 108.457L51.7755 108.597L51.6359 108.597L51.3568 108.597L51.0777 108.736L50.9381 108.736L50.5195 108.736L50.3799 109.016L50.1008 109.016L49.6822 109.016L49.5426 109.016L49.403 109.016L49.2635 109.016L49.1239 109.016L48.7053 109.016L48.5657 109.016L48.4261 108.736L48.0075 108.736L47.8679 108.736L47.7284 108.736L47.5888 108.736L47.5888 108.597L47.4493 108.597L47.1701 108.597L47.0306 108.597L46.8911 108.457L46.7515 108.457L46.7515 108.318L46.6119 108.318L46.3328 108.318L46.3328 108.178L46.1933 108.178L46.0537 107.899L45.9142 107.76L45.7746 107.76L45.4955 107.62L45.3559 107.481L45.3559 107.341L45.2164 107.341L45.2164 107.062L45.0768 106.922L45.0768 106.783L45.0768 106.643L44.9373 106.504L44.9373 106.225L44.9373 106.085" stroke="#777777" stroke-miterlimit="10" stroke-linecap="round" stroke-linejoin="round"/>
<path d="M30.0054 120.878C37.1227 118.924 42.7049 113.342 44.6586 106.224" stroke="#777777" stroke-miterlimit="10" stroke-linecap="round" stroke-linejoin="round"/>
<path d="M53.8694 106.224C55.8232 113.342 61.4054 118.924 68.5227 120.878" stroke="#777777" stroke-miterlimit="10" stroke-linecap="round" stroke-linejoin="round"/>
<path d="M22.7485 26.1199L22.3298 25.5617L21.9111 25.2826L21.632 24.5848L21.4925 24.0266L21.0738 23.6079L20.9343 23.0497L20.6551 22.352L20.3761 21.9333L20.3761 21.3751L20.2365 20.6773L20.0969 19.9795L20.0969 19.5609L20.0969 18.8631L20.0969 18.584L20.0969 18.1653L20.0969 17.4675L20.2365 16.6302L20.2365 16.072L20.376 15.3742L20.7947 14.6764L20.9343 13.9787L21.2133 13.2809L21.632 12.7227L22.0507 12.0249L22.4694 11.4666L22.888 10.7689L23.4462 10.3502L23.5858 10.2107L23.7254 9.93158L24.0044 9.79201L24.4231 9.37332L25.4 8.53603L26.5165 7.69869L27.4933 7.00091L28.4702 6.30314L29.5866 5.60537L30.7031 4.90759L31.8195 4.4889L32.936 3.79112L34.192 3.51204L35.448 2.95383L36.704 2.6747L37.8204 2.25605L38.5182 2.11649L38.7973 2.11649L39.0764 2.11649L39.216 1.97693L39.4951 1.97693L41.0302 1.55828L42.5653 1.41872L44.1004 1.27915L45.4959 1.13959L47.031 1.00003L48.5661 1.00002L49.4035 1.00002L50.2408 1.00002L51.9154 1.00002L53.4506 1.13959L55.1252 1.27915L56.7999 1.41872L58.335 1.83736L60.0097 2.11649L60.1492 2.11649L60.2887 2.25605L60.4283 2.25605L61.6843 2.6747L62.8008 2.95383L63.9172 3.23291L65.1732 3.6516L66.1501 4.07025L67.2665 4.62846L68.3829 5.32624L69.4994 5.74493L70.4763 6.4427L71.4531 7.14048L72.5696 7.97777L73.4069 8.67555L74.3838 9.51289L74.5234 9.65245L74.5234 9.79201L74.6629 9.79201L75.2211 10.3502L75.6398 11.048L76.198 11.4666L76.7562 12.1644L77.0353 12.8622L77.3145 13.56L77.7331 14.1182L77.8727 14.816L78.1518 15.5138L78.4309 16.3511L78.4309 17.0488L78.5704 17.8862L78.5704 18.584L78.5704 19.4213L78.5704 19.9795L78.4309 20.6773L78.1518 21.5146L78.0122 22.2124L77.7331 22.9102L77.5936 23.6079L77.1749 24.1662L76.8958 24.8639L76.3376 25.5617L76.0585 26.2595L75.5003 26.6782L75.0816 27.2364L74.6629 27.5155L74.5234 27.5155L74.5234 27.7946L74.2442 27.9342L73.8256 28.3528L72.8487 29.0506L71.8718 29.8879L70.8949 30.5857L69.7785 31.2835L68.8016 31.9812L67.8247 32.3999L66.7083 32.9581L65.5919 33.3768L64.4754 33.935L63.359 34.2141L62.103 34.7723L60.9865 34.9119L60.2887 35.0515L60.1492 35.3306L60.0097 35.3306L59.4514 35.3306L58.6141 35.6097L57.079 35.7492L55.4043 36.1679L53.7297 36.3075L52.1946 36.447L50.5199 36.447L49.6826 36.447L49.4035 36.447L48.8453 36.447L47.4497 36.447L46.0542 36.3075L44.519 36.3075L42.9839 36.1679L41.5884 35.7492L40.0533 35.6097L39.3555 35.4701L39.216 35.4701L39.0764 35.3306L38.6577 35.3306L37.1226 34.9119L35.8666 34.6328L34.4711 34.0746L33.2151 33.6559L31.8195 33.0977L30.424 32.3999L29.3076 31.5626L28.1911 30.8648L26.9351 30.0275L25.8187 29.0506L24.8418 28.2132L23.7254 27.2364L22.7485 26.1199Z" stroke="#777777" stroke-miterlimit="10" stroke-linecap="round" stroke-linejoin="round"/>
<path d="M25.3999 25.2827L25.2604 25.2827L25.2604 25.0035L25.1208 24.864L24.9813 24.7244L24.9813 24.5849L24.8417 24.5849L24.8417 24.4453L24.5626 24.1662L24.4231 24.0266L24.4231 23.8871L24.4231 23.7475L24.2835 23.7475L24.2835 23.608L24.1439 23.3289L24.1439 23.1893L24.0044 23.0498L24.0044 22.9102L23.7253 22.7706L23.7253 22.4916L23.7253 22.352L23.5857 22.352L23.5857 22.2124L23.5857 22.0729L23.5857 21.9333L23.4462 21.9333L23.4462 21.6542L23.4462 21.5147L23.4462 21.3751L23.3066 21.3751L23.3066 21.2355L23.3066 21.096L23.3066 20.8169L23.3066 20.6773L23.1671 20.5378L23.1671 20.3982L23.1671 20.2587L23.1671 19.9795L23.1671 19.84L23.1671 19.7005L23.1671 19.5609L22.8879 19.4213L22.8879 19.1422L22.8879 19.0027L22.8879 18.8631L22.8879 18.7236L22.8879 18.584L22.8879 18.3049L22.8879 18.1653L22.8879 18.0258L22.8879 17.8862L22.8879 17.7467L23.1671 17.4676L23.1671 17.328L23.1671 17.1884L23.1671 17.0489L23.1671 16.9094L23.1671 16.6302L23.1671 16.4907L23.3066 16.3511L23.3066 16.2116L23.3066 16.072L23.3066 15.7929L23.3066 15.6533L23.4462 15.5138L23.4462 15.3742L23.4461 15.2347L23.5857 14.9556L23.5857 14.816L23.7253 14.6765L23.7253 14.5369L23.7253 14.3973L24.0044 14.1183L24.0044 13.9787L24.1439 13.8391L24.1439 13.6996L24.1439 13.56L24.2835 13.56L24.2835 13.2809L24.4231 13.1414L24.4231 13.0018L24.5626 12.8622L24.5626 12.7227L24.8417 12.7227L24.8417 12.4436L24.9813 12.304L25.1208 12.1645L25.1208 12.0249L25.2604 12.0249L25.2604 11.8854L25.3999 11.6062L25.679 11.4667L25.8186 11.3272L25.9582 11.1876L25.9582 11.048L26.0977 11.048L26.2372 10.7689L26.2372 10.6294L26.5164 10.6294L26.5164 10.4898L26.7955 10.3503L26.935 10.2107L27.0746 9.93161L27.3537 9.79205L27.6328 9.65248L27.7724 9.51292L27.9119 9.09427L28.3306 8.95471L28.4701 8.81514L28.6097 8.67558L29.0283 8.53606L29.1679 8.25693L29.447 8.11737L29.5866 7.97781L29.8657 7.83828L30.1448 7.69872L30.2843 7.41959L30.703 7.28003L30.8426 7.14051L31.1217 7.14051L31.2612 7.00095L31.6799 6.86138L31.8194 6.58226L32.0986 6.44273L32.3777 6.30317L32.6568 6.16361L32.7964 6.16361L33.215 6.02404L33.3546 5.74496L33.6337 5.6054L33.7732 5.6054L34.1919 5.46583L34.3315 5.32627L34.6105 5.32627L35.0292 5.18671L35.1688 4.90762L35.4479 4.90762L35.727 4.76806L36.0061 4.62849L36.2852 4.62849L36.5643 4.48893L36.8434 4.48893L37.1226 4.34941L37.4016 4.34941L37.6808 4.07028L37.8203 4.07028L38.239 3.93072L38.5181 3.93072L38.6576 3.79116L39.0763 3.79116L39.3554 3.79116L39.6345 3.65163L39.9137 3.65163L40.0532 3.65163L40.1927 3.65163L40.4719 3.51207L40.8905 3.51207L41.1696 3.23294L41.5883 3.23294L41.8674 3.23294L42.1465 3.09338L42.5652 3.09338L42.8443 3.09338L43.263 2.95386L43.5421 2.95386L43.8212 2.95386L44.2398 2.8143L44.519 2.8143L44.9376 2.8143L45.2167 2.8143L45.4959 2.8143L45.9145 2.67473L46.1936 2.67473L46.7518 2.67473L47.0309 2.67473L47.4496 2.67473L47.7287 2.67473L48.0078 2.67473L48.4265 2.67473L48.7056 2.67473L49.1243 2.67473L49.2638 2.67473L49.4034 2.67473L49.6825 2.67473L50.1012 2.67473L50.5198 2.67473L50.9385 2.67473L51.2176 2.67473L51.6363 2.67473L51.9154 2.67473L52.4736 2.67473L52.7527 2.8143L53.0318 2.8143L53.4505 2.8143L53.7296 2.8143L54.2878 2.8143L54.5669 2.95386L54.9856 2.95386L55.2647 2.95386L55.5438 3.09338L55.9625 3.09338L56.3811 3.09338L56.7998 3.23294L57.0789 3.23294L57.4976 3.23294L57.7767 3.51207L58.0558 3.51207L58.614 3.65163L58.8931 3.65163L59.1722 3.79116L59.3118 3.79116L59.5909 3.79116L60.0096 3.93072L60.1491 3.93072L60.4282 3.93072L60.5678 4.07028L60.9864 4.07028L61.2656 4.34941L61.4051 4.34941L61.8238 4.48893L61.9633 4.48893L62.2425 4.62849L62.5215 4.62849L62.8007 4.76806L62.9402 4.76806L63.3589 4.90762L63.4984 5.1867L63.7775 5.1867L63.9171 5.32627L64.3358 5.46583L64.4753 5.46583L64.7544 5.60539L65.0336 5.74496L65.3126 5.74496L65.4522 6.02404L65.8709 6.16361L66.0104 6.30317L66.2895 6.30317L66.4291 6.44273L66.7082 6.58225L66.9873 6.86138L67.1269 6.86138L67.5455 7.00094L67.6851 7.14051L67.8247 7.28003L68.1037 7.41959L68.3829 7.69872L68.662 7.83828L68.8015 7.9778L68.9411 8.11737L69.3597 8.11737L69.4993 8.25693L69.6389 8.53606L70.0575 8.67558L70.1971 8.81514L70.3366 8.95471L70.4762 9.09427L70.8948 9.37335L71.0344 9.65248L71.174 9.79204L71.3135 9.93161L71.7322 10.2107L71.8717 10.3503L72.0113 10.4898L72.1508 10.6294L72.2904 10.6294L72.2904 10.7689L72.5695 11.048L72.7091 11.1876L72.8486 11.3272L72.9882 11.4667L73.1277 11.6062L73.4069 11.8854L73.4069 12.0249L73.5464 12.1645L73.6859 12.304L73.8255 12.4436L73.8255 12.7227L73.9651 12.8622L73.9651 13.0018L74.2442 13.1414L74.2442 13.2809L74.3837 13.2809L74.3837 13.56L74.5233 13.6996L74.5233 13.8391L74.6628 13.9787L74.6628 14.1183L74.6628 14.3973L74.8024 14.5369L74.8024 14.6765L75.0815 14.816L75.0815 14.9556L75.0815 15.2347L75.2211 15.2347L75.2211 15.3742L75.2211 15.5138L75.2211 15.6533L75.3606 15.7929L75.3606 16.072L75.3606 16.2116L75.3606 16.3511L75.5002 16.4907L75.5002 16.6302L75.5002 16.9094L75.5002 17.0489L75.5002 17.1884L75.5002 17.328L75.5002 17.4676L75.5002 17.7467L75.6397 17.8862L75.6397 18.0258L75.6397 18.1653L75.6397 18.3049L75.6397 18.584L75.6397 18.7236L75.6397 18.8631L75.6397 19.0027L75.6397 19.1422L75.5002 19.4213L75.5002 19.5609L75.5002 19.7005L75.5002 19.84L75.5002 19.9795L75.5002 20.2587L75.5002 20.3982L75.3606 20.5378L75.3606 20.6773L75.3606 20.8169L75.3606 21.096L75.3606 21.2355L75.2211 21.3751L75.2211 21.5147L75.2211 21.6542L75.0815 21.9333L75.0815 22.0729L75.0815 22.2124L74.8024 22.352L74.8024 22.4916L74.8024 22.7706L74.6628 22.9102L74.6628 23.0498L74.6628 23.1893L74.5233 23.1893L74.5233 23.3288L74.3837 23.608L74.3837 23.7475L74.2442 23.8871L74.2442 24.0266L73.9651 24.1662L73.9651 24.4453L73.8255 24.4453L73.8255 24.5849L73.6859 24.7244L73.6859 24.864L73.5464 25.0035L73.4069 25.2827L73.1277 25.4222L72.9882 25.5617L72.9882 25.7013L72.8486 25.7013L72.7091 25.8409L72.7091 26.1199L72.5695 26.2595L72.2904 26.2595L72.2904 26.3991L72.1508 26.5386L72.0113 26.5386L72.0113 26.6782L71.8717 26.9573L71.4531 27.0969L71.3135 27.2364L71.174 27.376L71.0344 27.5155L70.6158 27.7946L70.4762 27.9342L70.3366 28.0738L70.1971 28.2133L69.7784 28.3528L69.6389 28.632L69.4993 28.7715L69.2202 28.911L68.9411 29.0506L68.8015 29.1902L68.5224 29.4693L68.3829 29.6088L68.1037 29.7484L67.8247 29.888L67.6851 30.0275L67.2664 30.0275L67.1269 30.3066L66.9873 30.4462L66.7082 30.5857L66.4291 30.7253L66.15 30.7253L66.0104 30.8649L65.5918 31.1439L65.4522 31.2835L65.1731 31.2835L65.0336 31.4231L64.6149 31.5626L64.4753 31.5626L64.1962 31.7021L63.9171 31.9813L63.638 31.9813L63.4984 32.1208L63.0798 32.2604L62.9402 32.2604L62.6611 32.3999L62.5215 32.3999L62.1029 32.5395L61.9633 32.5395L61.6842 32.8186L61.4051 32.8186L61.126 32.9582L60.8469 32.9582L60.5678 33.0977L60.2887 33.0977L60.1491 33.2373L59.7304 33.2373L59.4514 33.2373L59.3118 33.3768L59.1722 33.3768L58.8931 33.3768L58.7536 33.3768L58.4745 33.656L58.0558 33.656L57.7767 33.7955L57.4976 33.7955L57.0789 33.935L56.6603 33.935L56.2416 33.935L55.9625 34.0746L55.5438 34.0746L55.2647 34.0746L54.9856 34.2142L54.4274 34.2142L54.1482 34.2142L53.7296 34.2142L53.4505 34.4932L53.0318 34.4932L52.6131 34.4932L52.1945 34.4932L51.9154 34.4932L51.6363 34.4932L51.2176 34.6328L50.7989 34.6328L50.3803 34.6328L50.1012 34.6328L49.6825 34.6328L49.4034 34.6328L49.2638 34.6328L49.1243 34.6328L48.7056 34.6328L48.4265 34.6328L48.0078 34.6328L47.7287 34.6328L47.4496 34.4932L47.0309 34.4932L46.7518 34.4932L46.3332 34.4932L46.0541 34.4932L45.7749 34.4932L45.3563 34.4932L45.0772 34.2142L44.6585 34.2142L44.3794 34.2142L44.1003 34.2142L43.6816 34.2142L43.4025 34.0746L42.9838 34.0746L42.7048 34.0746L42.4256 33.935L42.007 33.935L41.7279 33.935L41.3092 33.7955L41.0301 33.7955L40.751 33.656L40.3323 33.656L40.1927 33.656L40.0532 33.656L39.6345 33.3768L39.3554 33.3768L39.0763 33.3768L38.6576 33.2373L38.3786 33.2373L38.239 33.0977L37.8203 33.0977L37.5412 32.9582L37.1226 32.9582L36.8434 32.8186L36.5643 32.5395L36.1457 32.5395L36.0061 32.3999L35.727 32.3999L35.3083 32.2604L35.0292 32.1208L34.6105 31.9813L34.471 31.9813L34.1919 31.7021L33.7732 31.5626L33.4941 31.4231L33.3546 31.2835L32.9359 31.2835L32.6568 31.1439L32.5172 30.8649L32.0986 30.7253L31.8194 30.5857L31.6799 30.4462L31.2612 30.3066L30.9821 30.0275L30.8426 29.888L30.4239 29.7484L30.1448 29.6088L30.0053 29.4693L29.5866 29.1902L29.447 28.9111L29.1679 28.7715L29.0283 28.632L28.6097 28.3528L28.4701 28.2133L28.191 27.9342L27.9119 27.7946L27.6328 27.5155L27.4932 27.376L27.0746 27.0969L26.935 26.9573L26.7955 26.6782L26.5164 26.3991L26.2373 26.2595L26.0977 25.8409L25.8186 25.7013L25.679 25.5617L25.3999 25.2827Z" stroke="#777777" stroke-miterlimit="10" stroke-linecap="round" stroke-linejoin="round"/>
<path d="M19.9569 18.3048C19.8174 19.9794 19.8174 21.6541 19.8174 23.1892" stroke="#777777" stroke-miterlimit="10" stroke-linecap="round" stroke-linejoin="round"/>
<path d="M20.3762 30.7252C22.1904 46.0762 28.6099 60.4504 38.937 72.0334" stroke="#777777" stroke-miterlimit="10" stroke-linecap="round" stroke-linejoin="round"/>
<path d="M44.3793 84.4539C43.542 79.9881 41.5882 75.8014 38.7971 72.3126" stroke="#777777" stroke-miterlimit="10" stroke-linecap="round" stroke-linejoin="round"/>
<path d="M78.8495 23.3289C78.8495 21.6542 78.8495 19.9795 78.71 18.4444" stroke="#777777" stroke-miterlimit="10" stroke-linecap="round" stroke-linejoin="round"/>
<path d="M59.8699 72.1731C70.1969 60.59 76.6165 46.2159 78.4307 30.8649" stroke="#777777" stroke-miterlimit="10" stroke-linecap="round" stroke-linejoin="round"/>
<path d="M59.87 72.3121C57.0789 75.801 55.2647 79.8481 54.2878 84.1743" stroke="#777777" stroke-miterlimit="10" stroke-linecap="round" stroke-linejoin="round"/>
<path d="M13.9565 16.2116C13.6774 18.584 14.6543 21.096 16.4685 22.6311" stroke="#777777" stroke-miterlimit="10" stroke-linecap="round" stroke-linejoin="round"/>
<path d="M14.0962 16.2118C8.79309 17.6073 4.6064 21.3753 2.37352 26.3993C0.2802 31.4233 0.559328 37.145 3.35043 41.8899" stroke="#777777" stroke-miterlimit="10" stroke-linecap="round" stroke-linejoin="round"/>
<path d="M3.35034 41.8893C10.4676 52.9141 21.0738 61.2874 33.4942 65.3345" stroke="#777777" stroke-miterlimit="10" stroke-linecap="round" stroke-linejoin="round"/>
<path d="M12.4212 26.8178C12.1421 28.7716 13.2585 30.7254 14.9331 31.5627C16.7473 32.4 18.8407 32.2605 20.2362 30.8649" stroke="#777777" stroke-miterlimit="10" stroke-linecap="round" stroke-linejoin="round"/>
<path d="M20.3758 30.8647C21.9109 29.4692 22.4691 27.2363 21.4922 25.2825C20.6549 23.3288 18.5616 22.2123 16.4683 22.4914" stroke="#777777" stroke-miterlimit="10" stroke-linecap="round" stroke-linejoin="round"/>
<path d="M12.5607 26.6783C10.3279 27.0969 8.23454 28.4925 7.1181 30.5858C6.00166 32.6791 5.86208 35.0515 6.69941 37.2844" stroke="#777777" stroke-miterlimit="10" stroke-linecap="round" stroke-linejoin="round"/>
<path d="M6.69946 37.284C10.7466 47.332 18.9803 55.1471 29.3074 58.636" stroke="#777777" stroke-miterlimit="10" stroke-linecap="round" stroke-linejoin="round"/>
<path d="M12.4214 26.6782C13.1192 27.5156 14.2356 27.9342 15.352 27.6551C16.4685 27.376 17.3058 26.5386 17.4454 25.4222C17.7245 24.3058 17.3058 23.1894 16.4685 22.4916" stroke="#777777" stroke-miterlimit="10" stroke-linecap="round" stroke-linejoin="round"/>
<path d="M82.0591 22.4915C84.0129 20.9564 84.9898 18.5839 84.5711 16.0719" stroke="#777777" stroke-miterlimit="10" stroke-linecap="round" stroke-linejoin="round"/>
<path d="M95.3172 41.7502C97.9688 37.0054 98.3875 31.2836 96.2941 26.2596C94.2008 21.2357 89.8746 17.4677 84.5715 16.0721" stroke="#777777" stroke-miterlimit="10" stroke-linecap="round" stroke-linejoin="round"/>
<path d="M65.4521 65.3345C77.8725 61.1478 88.4787 52.9141 95.596 41.8893" stroke="#777777" stroke-miterlimit="10" stroke-linecap="round" stroke-linejoin="round"/>
<path d="M78.2915 30.8649C79.8266 32.1209 81.9199 32.4 83.5946 31.5626C85.4088 30.7253 86.3857 28.7715 86.1065 26.8177" stroke="#777777" stroke-miterlimit="10" stroke-linecap="round" stroke-linejoin="round"/>
<path d="M82.059 22.6311C79.9657 22.352 78.0119 23.4684 77.0351 25.4222C76.1977 27.376 76.6164 29.6088 78.1515 31.0044" stroke="#777777" stroke-miterlimit="10" stroke-linecap="round" stroke-linejoin="round"/>
<path d="M92.1072 37.2844C92.9445 35.1911 92.8049 32.6791 91.6885 30.5858C90.572 28.4925 88.6183 27.0969 86.2458 26.6783" stroke="#777777" stroke-miterlimit="10" stroke-linecap="round" stroke-linejoin="round"/>
<path d="M69.3594 58.636C79.6864 55.1471 87.9202 47.332 91.9673 37.284" stroke="#777777" stroke-miterlimit="10" stroke-linecap="round" stroke-linejoin="round"/>
<path d="M82.1988 22.4916C81.3614 23.1894 80.9427 24.3058 81.2219 25.4222C81.501 26.5386 82.3383 27.376 83.3152 27.6551C84.4316 27.9342 85.5481 27.5156 86.2458 26.6782" stroke="#777777" stroke-miterlimit="10" stroke-linecap="round" stroke-linejoin="round"/>
<path d="M87.9207 142.09L87.9207 124.924" stroke="#777777" stroke-miterlimit="10" stroke-linecap="round" stroke-linejoin="round"/>
<path d="M41.03 80.6855L41.03 83.4766" stroke="#777777" stroke-miterlimit="10" stroke-linecap="round" stroke-linejoin="round"/>
<path d="M57.2185 80.2668L57.2185 83.4766" stroke="#777777" stroke-miterlimit="10" stroke-linecap="round" stroke-linejoin="round"/>
<path d="M56.3811 78.0344L56.6602 78.3135L56.9393 78.5926L57.0789 79.0113L57.0789 79.2904L57.2184 79.7091L57.2184 79.9881L57.2184 80.5464L57.2184 80.8255L57.2184 81.1046L57.0789 81.6628L56.9393 81.9419L56.7997 82.3606L56.3811 82.5002L56.2415 82.6397L56.2415 82.7792L55.8229 83.1979L55.2647 83.6166L54.7064 84.0352L54.1482 84.3144L53.59 84.4539L52.8922 84.733L52.1944 84.8726L52.0549 85.0121L51.9153 85.0121L51.078 85.1517L50.2407 85.1517L49.4033 85.2913L49.2638 85.2913L48.8451 85.2913L48.566 85.1517L47.7287 85.1517L47.0309 85.0121L46.7518 85.0121L46.3331 85.0121L46.1936 85.0121L45.9145 84.8726L45.4958 84.8726L45.2167 84.733L44.9376 84.4539L44.5189 84.3144L44.2398 84.1748L43.8211 84.0352L43.542 83.8957L43.2629 83.6166L42.8442 83.3375L42.5651 83.1979L42.4256 83.0584L42.0069 82.6397L41.7278 82.3606L41.5882 81.9419L41.3092 81.6628L41.1696 81.1046L41.03 80.8255L41.03 80.2673L41.03 80.1277L41.03 79.8486L41.03 79.7091L41.1696 79.2904L41.1696 79.1508L41.3092 78.8717L41.5882 78.5926L41.5882 78.453L41.7278 78.1739L41.8674 78.0344L42.0069 78.0344L42.0069 77.7553L42.1465 77.7553L42.4256 77.6157" stroke="#777777" stroke-miterlimit="10" stroke-linecap="round" stroke-linejoin="round"/>
<path d="M57.2184 83.058L57.2184 83.1976L57.2184 83.3371L57.2184 83.4767L57.2184 83.6162L57.2184 83.8953L57.2184 84.0349L57.2184 84.1744L57.2184 84.314L57.0789 84.4536L57.0789 84.7326L56.9393 84.8722L56.9393 85.0118L56.7997 85.1513L56.7997 85.2909L56.6602 85.2909L56.6602 85.57L56.3811 85.57L56.3811 85.7095L56.2415 85.7095L56.2415 85.8491L56.1019 85.9887L55.9624 85.9887L55.8229 86.1282L55.5437 86.4073L55.4042 86.5469L55.2647 86.6864L55.1251 86.6864L54.9855 86.826L54.7064 86.826L54.5669 86.9655L54.4273 87.2447L54.2878 87.2447L54.1482 87.2447L53.8691 87.3842L53.7295 87.3842L53.59 87.5237L53.4504 87.6633L53.0318 87.6633L52.8922 87.6633L52.7526 87.8029L52.6131 87.8029L52.4736 87.8029L52.1944 87.8029L52.0549 88.082L51.7758 88.082L51.6362 88.082L51.2175 88.2215L51.078 88.2215L50.7989 88.2215L50.5197 88.2215L50.3802 88.2215L50.1011 88.2215L49.9615 88.2215L49.5429 88.3611L49.4033 88.3611L49.2638 88.3611L49.1242 88.3611L48.8451 88.3611L48.7056 88.3611L48.566 88.2215L48.2869 88.2215L48.0078 88.2215L47.8682 88.2215L47.5891 88.2215L47.4496 88.2215L47.1704 88.2215L46.8914 88.082L46.7518 88.082L46.6122 88.082L46.3331 88.082L46.1936 88.082L45.9145 87.8029L45.7749 87.8029L45.4958 87.8029L45.3562 87.6633L45.0771 87.6633L44.9376 87.5237L44.6585 87.5237L44.5189 87.3842L44.3793 87.3842L44.2398 87.2447L44.1003 87.2447L43.8211 86.9655L43.542 86.9655L43.4025 86.826L43.2629 86.6864L42.9838 86.5469L42.8442 86.5469L42.7047 86.4073L42.5651 86.1282L42.4256 85.9887L42.1465 85.8491L42.0069 85.7095L41.8674 85.57L41.8674 85.2909L41.7278 85.2909L41.5882 85.1513L41.5882 85.0118L41.3092 84.8722L41.3092 84.7326L41.1696 84.4536L41.1696 84.314L41.1696 84.1744L41.03 84.0349L41.03 83.8954L41.03 83.6162L41.03 83.4767L41.03 83.3371L41.03 83.1976L41.03 83.058" stroke="#777777" stroke-miterlimit="10" stroke-linecap="round" stroke-linejoin="round"/>
</svg>
