<svg width="25" height="23" viewBox="0 0 25 23" fill="none" xmlns="http://www.w3.org/2000/svg">
<path d="M11.2252 14.2807L4.64195 21.8022H1.85978L10.0176 12.4776L10.2056 12.2627L10.0321 12.0358L1.31959 0.646361H8.0903L13.2677 7.49158L13.5263 7.83359L13.8087 7.51082L19.8136 0.645354H22.5937L15 9.32513L14.813 9.53891L14.9844 9.76545L24.0906 21.8022H17.5034L11.765 14.2986L11.506 13.9599L11.2252 14.2807ZM18.0774 20.1447L18.1821 20.2817H18.3546H20.4088H21.1102L20.6871 19.7222L7.42596 2.18844L7.32124 2.04998H7.14764H4.94332H4.23706L4.66614 2.61096L18.0774 20.1447Z" stroke="white" stroke-width="0.697934"/>
</svg>
