<svg width="29" height="24" viewBox="0 0 29 24" fill="none" xmlns="http://www.w3.org/2000/svg">
<path d="M26.7739 1.14459L26.7831 1.14102L26.7922 1.13694C27.2509 0.929415 27.6366 1.00681 27.8659 1.22845C28.0999 1.45461 28.2703 1.9272 28.0752 2.70939L28.075 2.70933L28.0725 2.7214L23.9148 22.3155L23.9146 22.3167C23.779 22.967 23.5365 23.2646 23.2934 23.3741C23.0511 23.4831 22.6805 23.4633 22.1473 23.1742L15.8329 18.5101L15.5947 18.3341L15.3823 18.5406L12.3384 21.5006L12.3374 21.5015L12.3158 21.5224C12.1405 21.6917 12.0173 21.8106 11.872 21.8974C11.817 21.9302 11.7574 21.959 11.6891 21.9818L12.0836 16.0865L23.7277 5.57774C23.728 5.57744 23.7284 5.57713 23.7287 5.57682C23.8769 5.44503 24.0254 5.26226 24.0339 5.03703C24.0386 4.91178 23.9979 4.7928 23.9182 4.69781C23.8431 4.60833 23.7474 4.55626 23.661 4.52657C23.4921 4.46859 23.2969 4.47376 23.1142 4.51163C22.9247 4.55089 22.7199 4.63096 22.5173 4.75424L22.5172 4.7542L22.5124 4.75722L8.14458 13.8224L2.02963 11.9148L2.02807 11.9144C1.7199 11.8198 1.52106 11.7051 1.40897 11.5991C1.30286 11.4987 1.28907 11.4235 1.29428 11.3717C1.30081 11.3069 1.34684 11.1894 1.52185 11.0347C1.69429 10.8822 1.96666 10.7172 2.35932 10.5593L26.7739 1.14459Z" stroke="white" stroke-width="0.697934"/>
</svg>
