<svg width="122" height="192" viewBox="0 0 122 192" fill="none" xmlns="http://www.w3.org/2000/svg">
<path d="M110.69 149.487L110.69 140.834" stroke="#777777" stroke-miterlimit="10" stroke-linecap="round" stroke-linejoin="round"/>
<path d="M110.69 149.486L38.9588 190.795L19.7002 179.63L19.7002 171.117L38.9588 182.142L110.69 140.834" stroke="#777777" stroke-miterlimit="10" stroke-linecap="round" stroke-linejoin="round"/>
<path d="M38.9585 190.795L38.9585 182.142" stroke="#777777" stroke-miterlimit="10" stroke-linecap="round" stroke-linejoin="round"/>
<path d="M59.4734 148.091L19.7002 171.118" stroke="#777777" stroke-miterlimit="10" stroke-linecap="round" stroke-linejoin="round"/>
<path d="M110.69 140.834L91.5711 129.67L65.0557 145.021" stroke="#777777" stroke-miterlimit="10" stroke-linecap="round" stroke-linejoin="round"/>
<path d="M59.4734 125.064L59.4734 154.51" stroke="#777777" stroke-miterlimit="10" stroke-linecap="round" stroke-linejoin="round"/>
<path d="M65.0557 124.925L65.0557 154.371" stroke="#777777" stroke-miterlimit="10" stroke-linecap="round" stroke-linejoin="round"/>
<path d="M59.613 125.483L59.613 125.344L59.4734 125.344L59.4734 125.204L59.4734 125.065L59.4734 124.925L59.4734 124.646L59.4734 124.506L59.613 124.367L59.613 124.227L59.7525 124.227L59.8921 124.088L60.0316 123.809L60.3108 123.809" stroke="#777777" stroke-miterlimit="10" stroke-linecap="round" stroke-linejoin="round"/>
<path d="M64.497 124.087L64.6365 124.087L64.7761 124.227L64.9156 124.366L64.9156 124.506L65.0552 124.646L65.0552 124.925L65.0552 125.064L64.9156 125.204L64.9156 125.343L64.7761 125.483L64.7761 125.762L64.6365 125.762L64.497 125.902L64.497 126.041L64.2179 126.041L64.0783 126.181L63.7992 126.181L63.6596 126.32L63.3806 126.32L63.241 126.599" stroke="#777777" stroke-miterlimit="10" stroke-linecap="round" stroke-linejoin="round"/>
<circle cx="63.2406" cy="126.6" r="0.0833622" transform="rotate(-90 63.2406 126.6)" fill="black"/>
<path d="M63.2411 126.599L63.1016 126.599L62.9619 126.599L62.8224 126.599L62.5433 126.599L62.4038 126.599L62.2642 126.599L61.9851 126.599L61.706 126.599L61.4269 126.599L61.2874 126.599" stroke="#777777" stroke-miterlimit="10" stroke-linecap="round" stroke-linejoin="round"/>
<circle cx="61.287" cy="126.6" r="0.0833622" transform="rotate(-90 61.287 126.6)" fill="black"/>
<path d="M61.2877 126.599L61.1481 126.599L61.1481 126.32L60.869 126.32L60.7295 126.32L60.5899 126.181L60.4503 126.181L60.3108 126.041L60.0317 126.041L59.8922 125.902L59.7526 125.762L59.613 125.483" stroke="#777777" stroke-miterlimit="10" stroke-linecap="round" stroke-linejoin="round"/>
<path d="M65.0556 154.371L65.0556 154.511L64.9161 154.65L64.9161 154.79L64.9161 155.069L64.7765 155.069L64.7765 155.208L64.6369 155.208L64.6369 155.348L64.4974 155.348L64.2183 155.487L64.0788 155.627L63.9392 155.627L63.9392 155.906L63.7996 155.906L63.66 155.906L63.381 155.906L63.381 156.046L63.2414 156.046L63.1019 156.046L62.9623 156.046L62.8227 156.046L62.5436 156.046L62.4041 156.046L62.2645 156.046L62.125 156.046L61.9854 156.046L61.7063 156.046L61.5667 156.046L61.4272 156.046L61.2877 156.046L61.1481 156.046L60.8689 155.906L60.7294 155.906L60.5899 155.906L60.5899 155.627L60.4503 155.627L60.3108 155.487L60.0316 155.487L59.8921 155.348L59.7525 155.208L59.613 155.208L59.613 155.069L59.613 154.79L59.4734 154.79L59.4734 154.65L59.4734 154.511" stroke="#777777" stroke-miterlimit="10" stroke-linecap="round" stroke-linejoin="round"/>
<path d="M60.3108 37.2843L60.3108 123.808" stroke="#777777" stroke-miterlimit="10" stroke-linecap="round" stroke-linejoin="round"/>
<path d="M64.4976 36.3074L64.4976 123.808" stroke="#777777" stroke-miterlimit="10" stroke-linecap="round" stroke-linejoin="round"/>
<path d="M64.4974 123.808L64.4974 124.088L64.4974 124.227L64.2183 124.227L64.2183 124.367L64.0788 124.367L64.0788 124.506L63.9392 124.506L63.9392 124.646L63.7997 124.646L63.6601 124.925L63.381 124.925L63.2414 125.064L63.1019 125.064L62.9623 125.064L62.8228 125.064L62.5436 125.064L62.4041 125.064L62.2645 125.064L62.125 125.064L61.9855 125.064L61.7063 125.064L61.5667 125.064L61.4272 125.064L61.2877 124.925L61.1481 124.925L60.869 124.646L60.7294 124.646L60.5899 124.506L60.4503 124.367L60.4503 124.227L60.3108 124.227L60.3108 124.088L60.3108 123.808" stroke="#777777" stroke-miterlimit="10" stroke-linecap="round" stroke-linejoin="round"/>
<path d="M87.2446 147.951L87.2446 145.858" stroke="#777777" stroke-miterlimit="10" stroke-linecap="round" stroke-linejoin="round"/>
<path d="M87.2444 147.952L51.3787 168.606L41.6099 163.024L41.6099 160.93L51.3787 166.373L87.2444 145.858" stroke="#777777" stroke-miterlimit="10" stroke-linecap="round" stroke-linejoin="round"/>
<path d="M51.3789 168.606L51.3789 166.373" stroke="#777777" stroke-miterlimit="10" stroke-linecap="round" stroke-linejoin="round"/>
<path d="M59.4729 150.603L41.6099 160.93" stroke="#777777" stroke-miterlimit="10" stroke-linecap="round" stroke-linejoin="round"/>
<path d="M87.2449 145.858L77.4761 140.276L65.0557 147.533" stroke="#777777" stroke-miterlimit="10" stroke-linecap="round" stroke-linejoin="round"/>
<path d="M76.4989 115.993L76.3594 115.435L75.9407 115.156L75.8011 114.877L75.522 114.319L75.3825 114.04L75.1033 113.481L74.9638 112.923L74.8242 112.644L74.6847 112.086L74.6847 111.667L74.5452 111.109L74.5452 110.69L74.5452 110.132L74.5452 109.992L74.5452 109.574L74.5452 109.155L74.6847 108.457L74.6847 107.899L74.8242 107.48L74.9638 106.783L75.1033 106.224L75.522 105.806L75.6616 105.248L75.9407 104.829L76.3594 104.271L76.6385 103.712L77.1967 103.433L77.3363 103.294L77.4758 103.154L77.4758 102.875L78.034 102.596L78.7318 101.898L79.5691 101.2L80.4064 100.782L81.2438 100.084L82.0811 99.5258L82.9185 99.1072L83.8953 98.6885L84.7327 98.2698L85.7096 97.8511L86.6864 97.572L87.6633 97.2929L88.5007 97.0138L89.0588 96.8743L89.338 96.8743L89.6171 96.8743L89.6171 96.7347L89.8962 96.7347L91.0126 96.5951L92.2686 96.1765L93.5246 96.1765L94.7806 96.0369L95.8971 95.8974L97.153 95.8974L97.7113 95.8974L98.409 95.8974L99.8046 95.8974L100.921 96.0369L102.317 96.1765L103.573 96.4556L104.829 96.5951L106.085 96.8743L106.364 96.8743L106.503 96.8743L107.48 97.2929L108.317 97.4325L109.294 97.7116L110.132 98.1303L111.108 98.5489L111.946 98.9676L112.783 99.3862L113.621 99.9445L114.458 100.363L115.295 100.921L115.993 101.48L116.83 102.038L117.528 102.736L117.668 102.875L117.807 103.154L118.226 103.433L118.645 103.992L119.063 104.41L119.342 104.829L119.761 105.248L119.901 105.945L120.18 106.504L120.319 106.922L120.598 107.62L120.738 108.178L120.877 108.736L120.877 109.295L120.877 109.992L120.877 110.411L120.877 111.109L120.738 111.667L120.598 112.365L120.598 112.784L120.18 113.342L120.04 114.04L119.901 114.458L119.482 115.016L119.203 115.435L118.924 115.993L118.365 116.272L118.086 116.831L117.807 116.97L117.668 117.11L117.528 117.389L117.249 117.668L116.412 118.366L115.714 118.784L114.876 119.482L114.039 120.04L113.202 120.459L112.365 121.017L111.527 121.296L110.69 121.855L109.713 122.134L108.876 122.552L107.759 122.692L106.922 122.971L106.503 122.971L106.364 123.25L106.085 123.25L105.805 123.25L105.108 123.39L103.852 123.669L102.596 123.808L101.34 124.087L99.9441 124.087L98.5486 124.227L98.1299 124.227L97.7113 124.227L97.4321 124.227L96.3157 124.087L95.0597 124.087L93.9433 124.087L92.6873 123.808L91.5708 123.669L90.4544 123.39L89.7566 123.39L89.6171 123.25L89.1984 123.25L88.0819 122.971L87.1051 122.692L85.8491 122.413L84.8722 121.855L83.8953 121.296L82.9185 120.878L81.802 120.319L80.8251 119.622L79.8482 119.063L79.0109 118.366L78.1736 117.528L77.3363 116.831L76.4989 115.993Z" stroke="#777777" stroke-miterlimit="10" stroke-linecap="round" stroke-linejoin="round"/>
<path d="M74.9641 112.923C78.453 122.134 87.2449 128.274 97.0138 128.553C106.922 128.832 115.993 123.111 119.901 114.04" stroke="#777777" stroke-miterlimit="10" stroke-linecap="round" stroke-linejoin="round"/>
<path d="M120.877 109.853C114.737 103.434 106.224 99.9448 97.4318 100.084C88.6399 100.224 80.2666 104.131 74.4053 110.83" stroke="#777777" stroke-miterlimit="10" stroke-linecap="round" stroke-linejoin="round"/>
<path d="M23.049 48.0302C21.9326 48.0302 20.8161 48.8676 20.3974 49.8444C19.9788 50.9609 20.2579 52.2169 21.0952 53.0542C21.9325 53.8916 23.1886 54.0311 24.305 53.6124" stroke="#777777" stroke-miterlimit="10" stroke-linecap="round" stroke-linejoin="round"/>
<path d="M23.0493 48.0303C29.3293 48.0303 35.4697 45.7974 40.2146 41.7503" stroke="#777777" stroke-miterlimit="10" stroke-linecap="round" stroke-linejoin="round"/>
<path d="M82.0814 33.0977C67.5677 27.7946 51.3794 31.0044 40.0754 41.6106" stroke="#777777" stroke-miterlimit="10" stroke-linecap="round" stroke-linejoin="round"/>
<path d="M82.2207 33.2373C86.826 34.2142 91.5708 33.3769 95.3388 30.7253" stroke="#777777" stroke-miterlimit="10" stroke-linecap="round" stroke-linejoin="round"/>
<path d="M98.8279 35.6096C99.8048 34.9118 100.363 33.935 100.223 32.679C100.084 31.5625 99.3862 30.5856 98.2698 30.1669C97.1533 29.7483 96.0368 29.8879 95.0599 30.5856" stroke="#777777" stroke-miterlimit="10" stroke-linecap="round" stroke-linejoin="round"/>
<path d="M24.4452 53.752L23.887 50.5422" stroke="#777777" stroke-miterlimit="10" stroke-linecap="round" stroke-linejoin="round"/>
<path d="M23.887 50.4026C32.2603 49.2861 40.3545 46.3555 47.4718 41.8898" stroke="#777777" stroke-miterlimit="10" stroke-linecap="round" stroke-linejoin="round"/>
<path d="M79.0107 35.6098C68.1254 34.912 57.1006 37.0053 47.3318 42.0293" stroke="#777777" stroke-miterlimit="10" stroke-linecap="round" stroke-linejoin="round"/>
<path d="M79.1509 35.4704C85.0122 36.3077 91.013 35.4704 96.4556 33.098" stroke="#777777" stroke-miterlimit="10" stroke-linecap="round" stroke-linejoin="round"/>
<path d="M96.4554 33.0976L98.9675 35.6096" stroke="#777777" stroke-miterlimit="10" stroke-linecap="round" stroke-linejoin="round"/>
<path d="M74.6848 108.318L97.2927 33.0979L120.877 109.993" stroke="#777777" stroke-miterlimit="10" stroke-linecap="round" stroke-linejoin="round"/>
<path d="M97.1532 33.7954L97.1532 124.227" stroke="#777777" stroke-miterlimit="10" stroke-linecap="round" stroke-linejoin="round"/>
<path d="M3.09332 133.438L2.8142 132.879L2.53507 132.6L2.25599 132.042L2.11642 131.763L1.8373 131.205L1.69777 130.926L1.41865 130.367L1.27908 129.949L1.27908 129.53L1.13952 129.111L1.13952 128.553L0.999999 127.995L0.999999 127.576L0.999999 127.437L0.999999 127.018L0.999999 126.599L1.13952 125.902L1.27908 125.343L1.27908 124.646L1.41865 124.227L1.8373 123.669L1.97686 123.25L2.25599 122.692L2.67463 122.134L2.95376 121.715L3.37241 121.157L3.65154 120.878L3.7911 120.738L3.93062 120.459L4.20975 120.319L4.48887 120.04L5.32617 119.343L6.02394 118.645L6.86128 118.226L7.69862 117.528L8.67552 116.97L9.51282 116.551L10.3502 116.133L11.3271 115.714L12.1644 115.295L13.1413 115.016L14.2577 114.598L15.2346 114.458L15.6533 114.319L15.9324 114.319L16.0719 114.179L16.2114 114.179L16.351 114.179L17.7466 114.039L18.863 113.621L20.119 113.481L21.2355 113.481L22.3519 113.342L23.7474 113.342L24.3057 113.342L24.8639 113.342L26.2594 113.342L27.655 113.481L28.7714 113.621L30.1669 113.76L31.423 114.039L32.679 114.319L32.8185 114.319L32.958 114.319L33.0976 114.319L33.9349 114.598L34.9118 114.877L35.7491 115.156L36.8656 115.435L37.7029 115.993L38.5402 116.272L39.3776 116.831L40.2149 117.389L41.0523 117.807L41.8896 118.366L42.7269 118.784L43.2851 119.482L43.9829 120.18L44.1224 120.319L44.4016 120.319L44.8202 120.878L45.2389 121.296L45.518 121.715L45.7971 122.134L46.2158 122.692L46.4949 123.39L46.6345 123.808L47.0531 124.367L47.1927 124.925L47.1927 125.483L47.3323 126.041L47.3323 126.739L47.3323 127.437L47.3323 127.855L47.3323 128.553L47.3323 129.111L47.1927 129.67L47.0531 130.228L46.9135 130.786L46.6345 131.344L46.3554 131.903L46.0762 132.461L45.6576 132.879L45.3785 133.438L44.9598 133.717L44.5412 134.275L44.4016 134.415L44.4016 134.554L44.1224 134.554L43.9829 134.694L43.7038 135.112L43.006 135.81L42.1687 136.229L41.3313 136.926L40.6336 137.485L39.7963 137.903L38.959 138.462L37.9821 138.741L37.1447 139.159L36.3074 139.578L35.3305 139.997L34.4932 140.136L33.5163 140.415L32.958 140.415L32.958 140.555L32.8185 140.555L32.679 140.555L32.2603 140.555L31.5625 140.834L30.4461 141.113L29.0505 141.253L27.7946 141.392L26.5385 141.392L25.2825 141.671L24.5847 141.671L24.3057 141.671L23.887 141.671L22.7705 141.392L21.5146 141.392L20.3981 141.253L19.2817 141.253L18.0257 141.113L16.9092 140.834L16.351 140.834L16.2114 140.834L16.2114 140.555L16.0719 140.555L15.6533 140.555L14.6764 140.276L13.5599 140.136L12.3039 139.718L11.3271 139.299L10.3502 138.741L9.3733 138.322L8.3964 137.764L7.27997 137.066L6.44264 136.368L5.6053 135.81L4.6284 134.973L3.93062 134.275L3.09332 133.438Z" stroke="#777777" stroke-miterlimit="10" stroke-linecap="round" stroke-linejoin="round"/>
<path d="M1.41846 130.228C4.90733 139.439 13.6993 145.579 23.4681 145.858C33.3765 146.137 42.4476 140.415 46.3552 131.344" stroke="#777777" stroke-miterlimit="10" stroke-linecap="round" stroke-linejoin="round"/>
<path d="M47.4718 127.298C41.3314 120.878 32.8185 117.389 24.0266 117.529C15.2346 117.668 6.86131 121.576 1 128.274" stroke="#777777" stroke-miterlimit="10" stroke-linecap="round" stroke-linejoin="round"/>
<path d="M1.13892 125.762L23.8864 50.5422L47.4712 127.437" stroke="#777777" stroke-miterlimit="10" stroke-linecap="round" stroke-linejoin="round"/>
<path d="M23.7471 51.2397L23.7471 141.671" stroke="#777777" stroke-miterlimit="10" stroke-linecap="round" stroke-linejoin="round"/>
<path d="M59.4734 20.3982L59.4734 31.7021" stroke="#777777" stroke-miterlimit="10" stroke-linecap="round" stroke-linejoin="round"/>
<path d="M65.0557 20.2588L65.0557 30.865" stroke="#777777" stroke-miterlimit="10" stroke-linecap="round" stroke-linejoin="round"/>
<path d="M59.613 20.8171L59.613 20.6776L59.4734 20.6776L59.4734 20.538L59.4734 20.3984L59.4734 20.2589L59.4734 19.9798L59.4734 19.8402L59.4734 19.7007L59.613 19.7007L59.613 19.5612L59.7525 19.5612L59.7525 19.4216L59.8921 19.4216L60.0316 19.4216L60.0316 19.1425L60.3108 19.1425" stroke="#777777" stroke-miterlimit="10" stroke-linecap="round" stroke-linejoin="round"/>
<path d="M64.4971 19.4214L64.6366 19.4214L64.6366 19.5609L64.7762 19.5609L64.7762 19.7005L64.9157 19.7005L64.9157 19.84L64.9157 19.9796L65.0553 20.2587L64.9157 20.3982L64.9157 20.5378L64.9157 20.6774L64.9157 20.8169L64.7762 20.8169L64.7762 21.096L64.6366 21.096L64.6366 21.2356L64.4971 21.2356L64.218 21.3751L64.0785 21.3751L64.0785 21.5147L63.9388 21.5147L63.7993 21.5147L63.7993 21.6543L63.6597 21.6543L63.3807 21.6543L63.2411 21.9333L63.1016 21.9333L62.9619 21.9333L62.8224 21.9333L62.5433 21.9333L62.4038 21.9333L62.2642 21.9333L62.1246 21.9333L61.9851 21.9333L61.706 21.9333L61.5664 21.9333L61.4269 21.9333L61.2874 21.9333" stroke="#777777" stroke-miterlimit="10" stroke-linecap="round" stroke-linejoin="round"/>
<circle cx="61.287" cy="21.9337" r="0.0833622" transform="rotate(-90 61.287 21.9337)" fill="black"/>
<path d="M61.2877 21.9333L61.1481 21.9333L60.869 21.6543L60.7295 21.6543L60.5899 21.6543L60.5899 21.5147L60.4503 21.5147L60.3108 21.5147L60.0317 21.3751L59.8922 21.2356L59.7526 21.096L59.613 20.8169" stroke="#777777" stroke-miterlimit="10" stroke-linecap="round" stroke-linejoin="round"/>
<path d="M60.3108 10.7688L60.3108 19.1421" stroke="#777777" stroke-miterlimit="10" stroke-linecap="round" stroke-linejoin="round"/>
<path d="M64.4976 10.7688L64.4976 19.1421" stroke="#777777" stroke-miterlimit="10" stroke-linecap="round" stroke-linejoin="round"/>
<path d="M60.4503 11.4665L60.3108 11.327L60.3108 11.1874L60.3108 11.0479L60.3108 10.7688L60.3108 10.6292L60.3108 10.4897L60.4503 10.3501L60.5899 10.2105L60.7294 9.93142L60.869 9.93142L61.1481 9.7919L61.2877 9.7919L61.4272 9.7919L61.4272 9.65233L61.5667 9.65233L61.7063 9.65233L61.9855 9.65233L62.125 9.65233L62.2645 9.65233L62.4041 9.65233L62.5436 9.65233L62.8228 9.65233L62.9623 9.65233L63.1019 9.65233L63.2414 9.7919L63.381 9.7919L63.6601 9.7919L63.7997 9.93142L63.9392 10.2105L64.0788 10.2105L64.0788 10.3501L64.2183 10.3501L64.2183 10.4897L64.4974 10.6292L64.4974 10.7688L64.4974 11.0479L64.4974 11.1874L64.4974 11.327L64.2183 11.327L64.2183 11.4665L64.0788 11.4665L64.0788 11.6061L63.9392 11.6061L63.9392 11.8852L63.7997 11.8852L63.6601 11.8852L63.6601 12.0247L63.381 12.0247L63.2414 12.0247L63.1019 12.1643L62.9623 12.1643L62.8228 12.1643L62.5436 12.1643L62.4041 12.1643L62.2645 12.1643L62.125 12.1643L61.9855 12.1643L61.7063 12.1643L61.5667 12.1643L61.4272 12.1643L61.2877 12.0247L61.1481 12.0247L60.869 11.8852L60.7294 11.8852L60.7294 11.6061L60.5899 11.6061L60.4503 11.4665Z" stroke="#777777" stroke-miterlimit="10" stroke-linecap="round" stroke-linejoin="round"/>
<path d="M64.4974 19.1425L64.4974 19.4216L64.4974 19.5611L64.2183 19.5611L64.2183 19.7007L64.0788 19.7007L64.0788 19.8402L63.9392 19.8402L63.9392 19.9798L63.7997 19.9798L63.6601 20.2589L63.381 20.2589L63.2414 20.3984L63.1019 20.3984L62.9623 20.3984L62.8228 20.3984L62.5436 20.3984L62.4041 20.3984L62.2645 20.3984L62.125 20.3984L61.9855 20.3984L61.7063 20.3984L61.5667 20.3984L61.4272 20.3984L61.2877 20.2589L61.1481 20.2589L60.869 19.9798L60.7294 19.9798L60.5899 19.8402L60.4503 19.7007L60.3108 19.5611L60.3108 19.4216L60.3108 19.1425" stroke="#777777" stroke-miterlimit="10" stroke-linecap="round" stroke-linejoin="round"/>
<path d="M62.2644 10.7688L62.2644 0.999951" stroke="#777777" stroke-miterlimit="10" stroke-linecap="round" stroke-linejoin="round"/>
</svg>
