<svg width="175" height="228" viewBox="0 0 175 228" fill="none" xmlns="http://www.w3.org/2000/svg">
<path d="M1 171.117L0.999995 64.7765L56.4033 32.8185" stroke="#777777" stroke-miterlimit="10" stroke-linecap="round" stroke-linejoin="round"/>
<path d="M56.4033 139.159L17.7466 161.488" stroke="#777777" stroke-miterlimit="10" stroke-linecap="round" stroke-linejoin="round"/>
<path d="M1 171.117L0.999995 64.7766" stroke="#777777" stroke-miterlimit="10" stroke-linecap="round" stroke-linejoin="round"/>
<path d="M111.667 1.00029L56.4036 32.8188" stroke="#777777" stroke-miterlimit="10" stroke-linecap="round" stroke-linejoin="round"/>
<path d="M111.667 107.341L56.4036 139.16" stroke="#777777" stroke-miterlimit="10" stroke-linecap="round" stroke-linejoin="round"/>
<path d="M1 171.117L0.999995 64.7765L111.667 0.999897L111.667 6.16345" stroke="#777777" stroke-miterlimit="10" stroke-linecap="round" stroke-linejoin="round"/>
<path d="M111.667 105.527L111.667 107.341L17.7466 161.488" stroke="#777777" stroke-miterlimit="10" stroke-linecap="round" stroke-linejoin="round"/>
<path d="M13.2811 164.14L10.3505 165.814" stroke="#777777" stroke-miterlimit="10" stroke-linecap="round" stroke-linejoin="round"/>
<path d="M6.16355 168.187L1 171.117" stroke="#777777" stroke-miterlimit="10" stroke-linecap="round" stroke-linejoin="round"/>
<path d="M5.60571 163.303L5.60571 67.2889L107.202 8.67579L107.202 104.69L17.747 156.185L107.202 104.69L107.202 8.67579" stroke="#777777" stroke-miterlimit="10" stroke-linecap="round" stroke-linejoin="round"/>
<path d="M13.2808 158.976L10.071 160.651" stroke="#777777" stroke-miterlimit="10" stroke-linecap="round" stroke-linejoin="round"/>
<path d="M93.6645 16.6304L93.6645 96.7349L17.7466 140.555" stroke="#777777" stroke-miterlimit="10" stroke-linecap="round" stroke-linejoin="round"/>
<path d="M13.2808 143.207L10.071 145.021" stroke="#777777" stroke-miterlimit="10" stroke-linecap="round" stroke-linejoin="round"/>
<path d="M93.665 96.7348L107.202 104.689" stroke="#777777" stroke-miterlimit="10" stroke-linecap="round" stroke-linejoin="round"/>
<path d="M107.201 104.968L107.201 8.67545L170.699 16.9092L170.699 113.202L107.201 104.968Z" stroke="#777777" stroke-miterlimit="10" stroke-linecap="round" stroke-linejoin="round"/>
<path d="M110.412 6.02399L173.909 14.2577L173.909 110.411" stroke="#777777" stroke-miterlimit="10" stroke-linecap="round" stroke-linejoin="round"/>
<path d="M111.667 100.922L111.667 13.8392L166.094 20.9565L166.094 108.039L111.667 100.922Z" stroke="#777777" stroke-miterlimit="10" stroke-linecap="round" stroke-linejoin="round"/>
<path d="M139.857 17.6071L139.857 104.55" stroke="#777777" stroke-miterlimit="10" stroke-linecap="round" stroke-linejoin="round"/>
<path d="M138.043 17.4676L138.043 104.271" stroke="#777777" stroke-miterlimit="10" stroke-linecap="round" stroke-linejoin="round"/>
<path d="M111.667 58.2174L166.094 65.3347" stroke="#777777" stroke-miterlimit="10" stroke-linecap="round" stroke-linejoin="round"/>
<path d="M111.667 56.5428L166.094 63.6602" stroke="#777777" stroke-miterlimit="10" stroke-linecap="round" stroke-linejoin="round"/>
<path d="M170.699 16.9092L173.909 14.2576" stroke="#777777" stroke-miterlimit="10" stroke-linecap="round" stroke-linejoin="round"/>
<path d="M170.699 113.202L173.909 110.411" stroke="#777777" stroke-miterlimit="10" stroke-linecap="round" stroke-linejoin="round"/>
<path d="M170.699 16.9092L107.201 8.6754L110.411 6.02387" stroke="#777777" stroke-miterlimit="10" stroke-linecap="round" stroke-linejoin="round"/>
<path d="M5.60571 67.2889L13.2812 130.786" stroke="#777777" stroke-miterlimit="10" stroke-linecap="round" stroke-linejoin="round"/>
<path d="M10.071 66.8698L17.7466 130.228" stroke="#777777" stroke-miterlimit="10" stroke-linecap="round" stroke-linejoin="round"/>
<path d="M5.60571 163.303L13.2812 226.8" stroke="#777777" stroke-miterlimit="10" stroke-linecap="round" stroke-linejoin="round"/>
<path d="M10.071 162.744L13.2808 189.12" stroke="#777777" stroke-miterlimit="10" stroke-linecap="round" stroke-linejoin="round"/>
<path d="M13.2812 226.8L13.2812 130.786" stroke="#777777" stroke-miterlimit="10" stroke-linecap="round" stroke-linejoin="round"/>
<path d="M17.7466 226.8L17.7466 130.786" stroke="#777777" stroke-miterlimit="10" stroke-linecap="round" stroke-linejoin="round"/>
<path d="M13.2812 130.786L17.747 130.228" stroke="#777777" stroke-miterlimit="10" stroke-linecap="round" stroke-linejoin="round"/>
<path d="M5.60571 67.2888L10.0715 66.8702" stroke="#777777" stroke-miterlimit="10" stroke-linecap="round" stroke-linejoin="round"/>
<path d="M13.2812 226.8L17.747 226.8" stroke="#777777" stroke-miterlimit="10" stroke-linecap="round" stroke-linejoin="round"/>
<path d="M5.60571 163.303L10.0715 163.303L10.0715 104.829" stroke="#777777" stroke-miterlimit="10" stroke-linecap="round" stroke-linejoin="round"/>
<path d="M3.79114 104.968C3.93069 105.247 4.20985 105.527 4.62852 105.527C5.04718 105.527 5.32626 105.387 5.46581 104.968" stroke="#777777" stroke-miterlimit="10" stroke-linecap="round" stroke-linejoin="round"/>
<path d="M3.93079 105.108L3.93079 94.9204" stroke="#777777" stroke-miterlimit="10" stroke-linecap="round" stroke-linejoin="round"/>
<path d="M5.60571 105.108L5.60571 94.9204" stroke="#777777" stroke-miterlimit="10" stroke-linecap="round" stroke-linejoin="round"/>
<path d="M5.46581 94.9207C5.32626 94.6415 5.04718 94.3624 4.62852 94.3624C4.20985 94.3624 3.93069 94.502 3.79114 94.9207" stroke="#777777" stroke-miterlimit="10" stroke-linecap="round" stroke-linejoin="round"/>
<path d="M3.79114 102.317C3.93069 102.596 4.20985 102.875 4.62852 102.875C5.04718 102.875 5.32626 102.736 5.46581 102.317" stroke="#777777" stroke-miterlimit="10" stroke-linecap="round" stroke-linejoin="round"/>
<path d="M3.79114 101.619C3.93069 101.898 4.20985 102.177 4.62852 102.177C5.04718 102.177 5.32626 102.038 5.46581 101.619" stroke="#777777" stroke-miterlimit="10" stroke-linecap="round" stroke-linejoin="round"/>
<path d="M3.79114 98.6886C3.93069 98.9677 4.20985 99.2468 4.62852 99.2468C5.04718 99.2468 5.32626 99.1072 5.46581 98.6886" stroke="#777777" stroke-miterlimit="10" stroke-linecap="round" stroke-linejoin="round"/>
<path d="M3.79114 97.9906C3.93069 98.2697 4.20985 98.5488 4.62852 98.5488C5.04718 98.5488 5.32626 98.4092 5.46581 97.9906" stroke="#777777" stroke-miterlimit="10" stroke-linecap="round" stroke-linejoin="round"/>
<path d="M3.79114 147.812C3.93069 148.091 4.20985 148.37 4.62852 148.37C4.90763 148.37 5.32626 148.231 5.46581 147.812" stroke="#777777" stroke-miterlimit="10" stroke-linecap="round" stroke-linejoin="round"/>
<path d="M3.93079 147.812L3.93079 137.764" stroke="#777777" stroke-miterlimit="10" stroke-linecap="round" stroke-linejoin="round"/>
<path d="M5.60571 147.812L5.60571 137.764" stroke="#777777" stroke-miterlimit="10" stroke-linecap="round" stroke-linejoin="round"/>
<path d="M5.46581 137.624C5.32626 137.345 5.04718 137.066 4.62852 137.066C4.20985 137.066 3.93069 137.206 3.79114 137.624" stroke="#777777" stroke-miterlimit="10" stroke-linecap="round" stroke-linejoin="round"/>
<path d="M3.79114 145.021C3.93069 145.3 4.20985 145.579 4.62852 145.579C4.90763 145.579 5.32626 145.439 5.46581 145.021" stroke="#777777" stroke-miterlimit="10" stroke-linecap="round" stroke-linejoin="round"/>
<path d="M3.79114 144.323C3.93069 144.602 4.20985 144.881 4.62852 144.881C5.04718 144.881 5.32626 144.742 5.46581 144.323" stroke="#777777" stroke-miterlimit="10" stroke-linecap="round" stroke-linejoin="round"/>
<path d="M3.79114 141.392C3.93069 141.672 4.20985 141.951 4.62852 141.951C5.04718 141.951 5.32626 141.811 5.46581 141.392" stroke="#777777" stroke-miterlimit="10" stroke-linecap="round" stroke-linejoin="round"/>
<path d="M3.79114 140.695C3.93069 140.974 4.20985 141.253 4.62852 141.253C4.90763 141.253 5.32626 141.113 5.46581 140.695" stroke="#777777" stroke-miterlimit="10" stroke-linecap="round" stroke-linejoin="round"/>
</svg>
